{"title":"Princess Protection Program (2009) 720p HDTVRip [Dual Audio] [En","uid":8203968,"size":849930622,"categoryP":"video","categoryS":"hd___movies","magnet":"?xt=urn:btih:b71603f2a5db91d94655f350dad0cfa79047c962&amp;dn=Princess+Protection+Program+%282009%29+720p+HDTVRip+%5BDual+Audio%5D+%5BEn&amp;tr=udp%3A%2F%2Ftracker.openbittorrent.com%3A80&amp;tr=udp%3A%2F%2Fopen.demonii.com%3A1337&amp;tr=udp%3A%2F%2Ftracker.coppersurfer.tk%3A6969&amp;tr=udp%3A%2F%2Fexodus.desync.com%3A6969","seeders":8,"leechers":2,"uploader":"rahul4631","files":8,"time":1362079116,"description":"Complete name : Princess Protection Program (2009) 720p HDTVRip [Dual Audio] [Eng-Hin] {Rahul Pr.}\nFormat : Matroska\nFormat version : Version 4 / Version 2\nFile size : 795 MiB\nDuration : 1h 28mn\nOverall bit rate : 1 260 Kbps\nMovie name : Princess Protection Program (2009) 720p HDTVRip [Dual Audio] [Eng-Hin] {Rahul Pr.}\n\n\nIMDB:5.4/10(http://www.imdb.com/title/tt1196339/?ref_=sr_6)\n\nRelease Title: Princess Protection Program 2009\n\nRelease Date: 26 June 2009 (USA)\n\nFilm Length: 1:28:12\n\nTagline: Royality meets reality.\n\nGenres: Comedy | Drama | Family\n\n\n\n\n\nVideo\nID : 1\nFormat : AVC\nFormat/Info : Advanced Video Codec\nFormat profile : &lt;a class=&quot;__cf_email__&quot; href=&quot;/cdn-cgi/l/email-protection&quot; data-cfemail=&quot;0d45646a654d4139233c&quot;&gt;[email&amp;#160;protected]&lt;/a&gt;&lt;script cf-hash='f9e31' type=&quot;text/javascript&quot;&gt;\n/* &lt;![CDATA[ */!function(){try{var t=&quot;currentScript&quot;in document?document.currentScript:function(){for(var t=document.getElementsByTagName(&quot;script&quot;),e=t.length;e--;)if(t[e].getAttribute(&quot;cf-hash&quot;))return t[e]}();if(t&amp;&amp;t.previousSibling){var e,r,n,i,c=t.previousSibling,a=c.getAttribute(&quot;data-cfemail&quot;);if(a){for(e=&quot;&quot;,r=parseInt(a.substr(0,2),16),n=2;a.length-n;n+=2)i=parseInt(a.substr(n,2),16)^r,e+=String.fromCharCode(i);e=document.createTextNode(e),c.parentNode.replaceChild(e,c)}}}catch(u){}}();/* ]]&gt; */&lt;/script&gt;\nFormat settings, CABAC : Yes\nFormat settings, ReFrames : 4 frames\nCodec ID : V_MPEG4/ISO/AVC\nDuration : 1h 28mn\nBit rate : 1 098 Kbps\nWidth : 1 280 pixels\nHeight : 720 pixels\nDisplay aspect ratio : 16:9\nFrame rate mode : Constant\nFrame rate : 23.976 fps\n\n\n\nAudio #1\nID : 2\nFormat : AC-3\nFormat/Info : Audio Coding 3\nFormat profile : Dolby Digital\nMode extension : CM (complete main)\nFormat settings, Endianness : Big\nCodec ID : A_AC3\nDuration : 1h 28mn\nBit rate mode : Constant\nBit rate : 64.0 Kbps\nChannel(s) : 2 channels\nChannel positions : Front: L R\nSampling rate : 48.0 KHz\nBit depth : 16 bits\nCompression mode : Lossy\nStream size : 40.4 MiB (5%)\nTitle : {Rahul Pr.}\nLanguage : English\n\n\nAudio #2\nID : 3\nFormat : AC-3\nFormat/Info : Audio Coding 3\nMode extension : CM (complete main)\nFormat settings, Endianness : Big\nCodec ID : A_AC3\nDuration : 1h 28mn\nBit rate mode : Constant\nBit rate : 96.0 Kbps\nChannel(s) : 2 channels\nChannel positions : Front: L R\nSampling rate : 48.0 KHz\nBit depth : 16 bits\nCompression mode : Lossy\nStream size : 60.6 MiB (8%)\nTitle : {Rahul Pr.}\nLanguage : Hindi","torrent":{"xt":"urn:btih:b71603f2a5db91d94655f350dad0cfa79047c962","amp;dn":"Princess+Protection+Program+%282009%29+720p+HDTVRip+%5BDual+Audio%5D+%5BEn","amp;tr":["udp%3A%2F%2Ftracker.openbittorrent.com%3A80","udp%3A%2F%2Fopen.demonii.com%3A1337","udp%3A%2F%2Ftracker.coppersurfer.tk%3A6969","udp%3A%2F%2Fexodus.desync.com%3A6969"],"infoHash":"b71603f2a5db91d94655f350dad0cfa79047c962","infoHashBuffer":{"type":"Buffer","data":[183,22,3,242,165,219,145,217,70,85,243,80,218,208,207,167,144,71,201,98]},"announce":[],"urlList":[]}}